<svg xmlns="http://www.w3.org/2000/svg" viewBox="0 0 23 23" width="23" height="23">
	<style>
		tspan { white-space:pre }
		.shp0 { fill: #f16b4f } 
	</style>
	<g id="Home">
		<g id="Search">
			<path id="clock " fill-rule="evenodd" class="shp0" d="M11.5 -0.01C17.85 -0.01 23 5.14 23 11.49C23 17.84 17.85 22.99 11.5 22.99C5.15 22.99 0 17.84 0 11.49C0 5.14 5.15 -0.01 11.5 -0.01ZM2.12 11.51C2.12 16.64 6.28 20.8 11.41 20.8C16.54 20.8 20.7 16.64 20.7 11.51C20.7 6.38 16.54 2.22 11.41 2.22C6.28 2.22 2.12 6.38 2.12 11.51ZM14.09 13.8L10.58 13.8C10.1 13.8 9.7 13.4 9.7 12.92L9.7 7.59C9.7 7.11 10.1 6.72 10.58 6.72C11.06 6.72 11.46 7.11 11.46 7.59L11.46 12.05L14.09 12.05C14.57 12.05 14.97 12.44 14.97 12.92C14.97 13.4 14.57 13.8 14.09 13.8Z" />
		</g>
	</g>
</svg>