<svg xmlns="http://www.w3.org/2000/svg" viewBox="0 0 20 21" width="20" height="21">
	<style>
		tspan { white-space:pre }
		.shp0 { fill: #9d9d9d } 
	</style>
	<g id="Home">
		<g id="Stats">
			<g id="2">
				<path id="pencil" class="shp0" d="M2.68 12.84L13.14 2.38L17.62 6.86L7.16 17.31L2.68 12.84ZM13.62 4.9L13.13 4.41L4.71 12.83L5.21 13.32L13.62 4.9ZM14.6 5.88L14.11 5.39L5.7 13.81L6.19 14.3L14.6 5.88ZM15.58 6.86L15.09 6.37L6.68 14.79L7.17 15.28L15.58 6.86ZM15.14 0.41C15.69 -0.14 16.58 -0.15 17.13 0.4L19.59 2.86C20.14 3.41 20.13 4.3 19.58 4.85L18.06 6.37L13.62 1.93L15.14 0.41ZM2.34 13.42L6.58 17.66L2.86 18.98L1.02 17.13L2.34 13.42ZM2.16 19.21L0.01 19.99L0.79 17.84L2.16 19.21Z" />
			</g>
		</g>
	</g>
</svg>