<svg xmlns="http://www.w3.org/2000/svg" viewBox="0 0 31 17" width="31" height="17">
	<style>
		tspan { white-space:pre }
		.shp0 { fill: #9d9d9d } 
	</style>
	<g id="Home">
		<g id="Stats">
			<g id="1">
				<path id="3d glasess" fill-rule="evenodd" class="shp0" d="M31 5.85L31 14.65C31 15.39 30.38 16 29.62 16C29.62 16 24.15 16 18.03 16C17.12 16 16.42 12.84 15.5 12.84C14.44 12.84 13.49 16 12.46 16C6.69 16 1.38 16 1.38 16C0.62 16 0 15.39 0 14.65L0 5.85L31 5.85ZM2.07 9.91L2.07 11.94C2.07 13.06 2.99 13.97 4.13 13.97L10.33 13.97C11.47 13.97 12.4 13.06 12.4 11.94L12.4 9.91C12.4 8.79 11.47 7.88 10.33 7.88L4.13 7.88C2.99 7.88 2.07 8.79 2.07 9.91ZM18.6 9.91L18.6 11.94C18.6 13.06 19.52 13.97 20.67 13.97L26.87 13.97C28.01 13.97 28.93 13.06 28.93 11.94L28.93 9.91C28.93 8.79 28.01 7.88 26.87 7.88L20.67 7.88C19.52 7.88 18.6 8.79 18.6 9.91ZM7.48 0.73C8.66 0.06 10.23 -0.43 10.92 0.54C11.61 1.51 12.3 2.86 11.51 2.96C10.73 3.05 10.43 2.47 9.25 2.47C8.07 2.47 5.51 5.15 5.51 5.15L0.02 5.15C0.02 5.15 6.3 1.41 7.48 0.73ZM30.98 5.15L25.49 5.15C25.49 5.15 22.93 2.47 21.75 2.47C20.57 2.47 20.27 3.05 19.49 2.96C18.7 2.86 19.39 1.51 20.08 0.54C20.76 -0.43 22.34 0.06 23.52 0.73C24.7 1.41 30.98 5.15 30.98 5.15Z" />
			</g>
		</g>
	</g>
</svg>