<svg xmlns="http://www.w3.org/2000/svg" viewBox="0 0 19 20" width="19" height="20">
	<style>
		tspan { white-space:pre }
		.shp0 { fill: #bdbdbd } 
	</style>
	<g id="Home">
		<g id="Content Lists">
			<path id="plus" class="shp0" d="M9.5 19C4.25 19 0 14.75 0 9.5C0 4.25 4.25 0 9.5 0C14.75 0 19 4.25 19 9.5C19 14.75 14.75 19 9.5 19ZM14.2 9.09C14.2 8.69 13.88 8.36 13.47 8.36L10.55 8.36L10.55 5.44C10.55 5.03 10.22 4.7 9.82 4.7L9.09 4.7C8.69 4.7 8.36 5.03 8.36 5.44L8.36 8.36L5.44 8.36C5.03 8.36 4.7 8.69 4.7 9.09L4.7 9.82C4.7 10.22 5.03 10.55 5.44 10.55L8.36 10.55L8.36 13.47C8.36 13.88 8.69 14.2 9.09 14.2L9.82 14.2C10.22 14.2 10.55 13.88 10.55 13.47L10.55 10.55L13.47 10.55C13.88 10.55 14.2 10.22 14.2 9.82L14.2 9.09Z" />
		</g>
	</g>
</svg>