<svg xmlns="http://www.w3.org/2000/svg" viewBox="0 0 9 16" width="9" height="16">
	<style>
		tspan { white-space:pre }
		.shp0 { fill: #aaaaaa } 
	</style>
	<g id="Pagination">
		<g id="Left">
			<path id="Arrow Left Icon" class="shp0" d="M0.3 8.76L7.02 15.59C7.44 16 8.12 15.99 8.55 15.55C8.98 15.11 9 14.42 8.59 14L2.68 8.01L8.59 2.01C9 1.59 8.98 0.9 8.55 0.46C8.12 0.02 7.44 0 7.02 0.42L0.3 7.25C0.1 7.45 0.01 7.7 0 7.96C0 7.97 0 7.99 0 8.01C0 8.02 0 8.03 0 8.05C0.01 8.31 0.1 8.56 0.3 8.76Z" />
		</g>
	</g>
</svg>