<svg xmlns="http://www.w3.org/2000/svg" viewBox="0 0 40 40" width="40" height="40">
	<style>
		tspan { white-space:pre }
		.shp0 { fill: #9cbf3e } 
	</style>
	<g id="Footer">
		<path id="Logo" class="shp0" d="M40 24.41C40 27.66 37.35 30.28 34.09 30.28L34.09 30.3C32.58 30.3 31.06 29.72 29.91 28.57C27.42 26.1 25.51 24.19 24.13 22.81C24.67 22.01 24.99 21.05 24.99 20.01C24.99 18.97 24.67 18 24.12 17.2C25.51 15.82 27.42 13.91 29.91 11.43C31.06 10.28 32.58 9.71 34.09 9.71L34.09 9.72C37.35 9.72 40 12.35 40 15.6C40 17.35 38.82 18.55 38.82 20C38.82 21.46 40 22.65 40 24.41ZM22.77 15.85C21.98 15.32 21.02 15.01 20 15.01C18.97 15.01 18.02 15.33 17.23 15.86C15.84 14.47 13.92 12.56 11.42 10.05C10.27 8.9 9.69 7.39 9.69 5.88L9.7 5.88C9.7 2.63 12.34 0 15.59 0C17.34 0 18.54 1.18 20 1.18C21.46 1.18 22.65 0 24.41 0C27.66 0 30.29 2.63 30.29 5.88L30.3 5.88C30.3 7.39 29.73 8.9 28.58 10.05C26.07 12.56 24.15 14.47 22.77 15.85ZM10.09 11.43C12.58 13.91 14.49 15.82 15.87 17.2C15.33 18 15.01 18.97 15.01 20.01C15.01 21.05 15.33 22.01 15.87 22.81C14.49 24.19 12.58 26.1 10.09 28.57C8.93 29.72 7.42 30.3 5.9 30.3L5.9 30.28C2.64 30.28 0 27.66 0 24.41C0 22.65 1.18 21.46 1.18 20C1.18 18.55 0 17.35 0 15.6C0 12.35 2.64 9.72 5.9 9.72L5.9 9.71C7.42 9.71 8.93 10.28 10.09 11.43ZM23.28 19.22C23.54 19.22 23.75 19.43 23.75 19.69L23.75 20.32C23.75 20.57 23.54 20.78 23.28 20.78L22.52 20.78C22.47 20.94 22.41 21.09 22.34 21.24L22.87 21.77C23.05 21.95 23.05 22.25 22.87 22.43L22.43 22.88C22.25 23.06 21.95 23.06 21.77 22.88L21.23 22.34C21.09 22.42 20.94 22.48 20.78 22.53L20.78 23.28C20.78 23.54 20.57 23.75 20.31 23.75L19.69 23.75C19.43 23.75 19.22 23.54 19.22 23.28L19.22 22.53C19.06 22.48 18.91 22.42 18.77 22.34L18.23 22.88C18.05 23.06 17.75 23.06 17.57 22.88L17.13 22.43C16.94 22.25 16.94 21.95 17.13 21.77L17.66 21.23C17.59 21.09 17.53 20.94 17.48 20.78L16.72 20.78C16.46 20.78 16.25 20.57 16.25 20.32L16.25 19.69C16.25 19.43 16.46 19.22 16.72 19.22L17.48 19.22C17.53 19.07 17.59 18.92 17.67 18.78L17.13 18.24C16.94 18.05 16.94 17.76 17.13 17.57L17.57 17.13C17.75 16.95 18.05 16.95 18.23 17.13L18.77 17.67C18.92 17.6 19.06 17.54 19.22 17.49L19.22 16.72C19.22 16.46 19.43 16.25 19.69 16.25L20.31 16.25C20.57 16.25 20.78 16.46 20.78 16.72L20.78 17.49C20.93 17.54 21.08 17.6 21.22 17.67L21.77 17.13C21.95 16.95 22.25 16.95 22.43 17.13L22.87 17.57C23.05 17.76 23.05 18.05 22.87 18.24L22.33 18.77C22.41 18.92 22.47 19.07 22.52 19.22L23.28 19.22ZM20 18.75C19.31 18.75 18.75 19.31 18.75 20C18.75 20.69 19.31 21.25 20 21.25C20.69 21.25 21.25 20.69 21.25 20C21.25 19.31 20.69 18.75 20 18.75ZM17.19 24.14C17.99 24.68 18.96 25 20 25C21.04 25 22.01 24.68 22.81 24.14C24.19 25.52 26.09 27.43 28.57 29.92C29.72 31.07 30.29 32.58 30.29 34.1L30.28 34.1C30.28 37.36 27.65 40 24.4 40C22.65 40 21.45 38.82 20 38.82C18.54 38.82 17.35 40 15.59 40C12.35 40 9.72 37.36 9.72 34.1L9.7 34.1C9.7 32.58 10.28 31.07 11.43 29.92C13.9 27.43 15.81 25.52 17.19 24.14Z" />
	</g>
</svg>