<?xml version="1.0"?>
<svg xmlns="http://www.w3.org/2000/svg" xmlns:xlink="http://www.w3.org/1999/xlink" version="1.1" id="Capa_1" x="0px" y="0px" viewBox="0 0 496 496" style="enable-background:new 0 0 496 496;" xml:space="preserve" width="512px" height="512px" class=""><g><g>
	<g>
		<g>
			<path d="M472,416V168c0-22.056-17.944-40-40-40h-48v-24h-20.384c-2.616-9.448-6.384-18.52-11.264-27.096l14.44-14.44     l-45.256-45.256l-14.44,14.44C298.52,26.768,289.448,23,280,20.384V0h-64v20.384c-9.448,2.616-18.52,6.384-27.096,11.264     l-14.44-14.44l-45.256,45.256l14.44,14.44c-4.88,8.576-8.656,17.656-11.264,27.096H112v24H64c-22.056,0-40,17.944-40,40v248H0v40     c0,22.056,17.944,40,40,40h416c22.056,0,40-17.944,40-40v-40H472z M128,120h17.08l1.376-6.288     c2.616-11.952,7.328-23.296,14.008-33.712l3.48-5.424l-12.112-12.112l22.632-22.632l12.112,12.112L192,48.472     c10.416-6.68,21.76-11.4,33.712-14.008L232,33.08V16h32v17.08l6.288,1.376c11.952,2.616,23.296,7.328,33.712,14.016l5.424,3.48     l12.112-12.112l22.632,22.632l-12.112,12.112L335.528,80c6.68,10.416,11.4,21.76,14.008,33.712L350.92,120H368v8h-32.4     c-0.568-6.264-1.76-12.44-3.648-18.424l-15.264,4.808c1.392,4.424,2.192,9,2.704,13.624H303.36c-3.904-27.096-27.208-48-55.36-48     s-51.456,20.904-55.36,48h-16.168c4-35.944,34.536-64,71.528-64c25.616,0,49.512,13.792,62.368,35.992l13.84-8.016     C308.512,64.848,279.312,48,248,48c-45.824,0-83.536,35.216-87.592,80H128V120z M287.192,128h-78.384     c3.72-18.232,19.872-32,39.192-32S283.472,109.768,287.192,128z M40,168c0-13.232,10.768-24,24-24h368c13.232,0,24,10.768,24,24     v248h-16V176c0-8.824-7.176-16-16-16H312v16h112v240H72V176h112v-16H72c-8.824,0-16,7.176-16,16v240H40V168z M296,432v8     c0,4.408-3.592,8-8,8h-80c-4.408,0-8-3.592-8-8v-8H296z M480,456c0,13.232-10.768,24-24,24H40c-13.232,0-24-10.768-24-24v-24h168     v8c0,13.232,10.768,24,24,24h80c13.232,0,24-10.768,24-24v-8h168V456z" data-original="#000000" class="active-path" data-old_color="#000000" fill="#FFFFFF"/>
			<rect x="72" y="448" width="16" height="16" data-original="#000000" class="active-path" data-old_color="#000000" fill="#FFFFFF"/>
			<rect x="104" y="448" width="16" height="16" data-original="#000000" class="active-path" data-old_color="#000000" fill="#FFFFFF"/>
			<rect x="136" y="448" width="16" height="16" data-original="#000000" class="active-path" data-old_color="#000000" fill="#FFFFFF"/>
			<path d="M216,320c-13.232,0-24,10.768-24,24s10.768,24,24,24s24-10.768,24-24S229.232,320,216,320z M216,352     c-4.408,0-8-3.592-8-8c0-4.408,3.592-8,8-8s8,3.592,8,8C224,348.408,220.408,352,216,352z" data-original="#000000" class="active-path" data-old_color="#000000" fill="#FFFFFF"/>
			<path d="M280,376c13.232,0,24-10.768,24-24s-10.768-24-24-24s-24,10.768-24,24S266.768,376,280,376z M280,344     c4.408,0,8,3.592,8,8c0,4.408-3.592,8-8,8c-4.408,0-8-3.592-8-8C272,347.592,275.592,344,280,344z" data-original="#000000" class="active-path" data-old_color="#000000" fill="#FFFFFF"/>
			<path d="M216,253.736L156.888,349.8c-3.2,5.192-4.888,11.16-4.888,17.256C152,385.224,166.776,400,184.944,400h126.12     c18.16,0,32.936-14.776,32.936-32.944c0-6.096-1.688-12.064-4.888-17.264L280,253.736V208h16v-48h-96v48h16V253.736z      M325.488,358.168c1.648,2.68,2.512,5.752,2.512,8.888C328,376.4,320.4,384,311.056,384H184.944C175.6,384,168,376.4,168,367.056     c0-3.136,0.864-6.208,2.512-8.88l42.912-69.736c8.8,0.992,15.424,4.168,23.272,8.184c12.864,6.592,28.928,14.664,60.304,15.256     L325.488,358.168z M286.832,295.368c-20.832-1.832-32.48-7.664-42.84-12.968c-6.8-3.48-13.384-6.816-21.472-8.728l9.48-15.408     V208h32v50.264L286.832,295.368z M216,176h64v16h-64V176z" data-original="#000000" class="active-path" data-old_color="#000000" fill="#FFFFFF"/>
		</g>
	</g>
</g></g> </svg>
