<svg xmlns="http://www.w3.org/2000/svg" viewBox="0 0 50 50" width="50" height="50">
	<style>
		tspan { white-space:pre }
		.shp0 { opacity: 0.749;fill: #ffffff } 
	</style>
	<g id="Slider">
		<g id="Arrows">
			<path id="Arrow Right" class="shp0" d="M25 50C11.19 50 0 38.81 0 25C0 11.19 11.19 0 25 0C38.81 0 50 11.19 50 25C50 38.81 38.81 50 25 50ZM25 3C12.85 3 3 12.85 3 25C3 37.15 12.85 47 25 47C37.15 47 47 37.15 47 25C47 12.85 37.15 3 25 3ZM33.53 26.15L22.94 36.53C22.3 37.16 21.22 37.13 20.54 36.47C19.86 35.8 19.83 34.75 20.48 34.11L29.78 25L20.48 15.89C19.83 15.26 19.86 14.2 20.54 13.54C21.22 12.87 22.3 12.84 22.94 13.48L33.53 23.85C33.84 24.15 33.99 24.54 34 24.93C34 24.96 34 24.98 34 25C34 25.02 34 25.05 34 25.07C33.99 25.46 33.84 25.85 33.53 26.15Z" />
		</g>
	</g>
</svg>