<svg xmlns="http://www.w3.org/2000/svg" viewBox="0 0 9 16" width="9" height="16">
	<style>
		tspan { white-space:pre }
		.shp0 { fill: #aaaaaa } 
	</style>
	<g id="Cards">
		<g id="Arrows">
			<g id="Right">
				<path id="Arrow Right Icon" class="shp0" d="M8.7 8.77L1.88 15.71C1.46 16.13 0.77 16.11 0.33 15.66C-0.11 15.22 -0.13 14.52 0.29 14.09L6.28 8L0.29 1.91C-0.13 1.49 -0.11 0.78 0.33 0.34C0.77 -0.11 1.46 -0.12 1.88 0.3L8.7 7.24C8.89 7.43 8.99 7.69 9 7.96C9 7.97 9 7.99 9 8C9 8.02 9 8.03 9 8.05C8.99 8.31 8.89 8.57 8.7 8.77Z" />
			</g>
		</g>
	</g>
</svg>