<svg xmlns="http://www.w3.org/2000/svg" viewBox="0 0 50 50" width="50" height="50">
	<style>
		tspan { white-space:pre }
		.shp0 { opacity: 0.749;fill: #ffffff } 
	</style>
	<g id="Slider">
		<g id="Arrows">
			<path id="Arrow Left" class="shp0" d="M25 50C38.81 50 50 38.81 50 25C50 11.19 38.81 0 25 0C11.19 0 0 11.19 0 25C0 38.81 11.19 50 25 50ZM25 3C37.15 3 47 12.85 47 25C47 37.15 37.15 47 25 47C12.85 47 3 37.15 3 25C3 12.85 12.85 3 25 3ZM16.47 26.15L27.06 36.53C27.7 37.16 28.78 37.13 29.46 36.47C30.14 35.8 30.17 34.75 29.52 34.11L20.22 25L29.52 15.89C30.17 15.26 30.14 14.2 29.46 13.54C28.78 12.87 27.7 12.84 27.06 13.48L16.47 23.85C16.16 24.15 16.01 24.54 16 24.93C16 24.96 16 24.98 16 25C16 25.02 16 25.05 16 25.07C16.01 25.46 16.16 25.85 16.47 26.15Z" />
		</g>
	</g>
</svg>