<svg xmlns="http://www.w3.org/2000/svg" viewBox="0 0 97 76" width="97" height="76">
	<style>
		tspan { white-space:pre }
		.shp0 { fill: #f3f3f3 } 
	</style>
	<g id="Review">
		<path id="“" class="shp0" d="M63.59 19.42C57.37 27.44 54.27 36.5 54.27 46.6C54.27 55.29 56.55 62.21 61.12 67.38C65.68 72.55 71.11 75.13 77.4 75.13C82.79 75.13 87.38 73.22 91.16 69.4C94.94 65.58 96.83 61.17 96.83 56.15C96.83 51.36 95.18 47.22 91.89 43.74C88.59 40.26 84.81 38.52 80.55 38.52C76.88 38.52 73.85 39.38 71.45 41.1C70.7 41.62 70.14 41.89 69.77 41.89C69.39 41.89 69.05 41.66 68.75 41.21C68.31 40.54 68.08 39.49 68.08 38.07C68.08 31.48 70.29 25.14 74.71 19.03C79.12 12.93 85.23 8.46 93.01 5.61L93.01 0.11C79.61 4.98 69.8 11.41 63.59 19.42ZM9.57 19.42C3.35 27.44 0.25 36.5 0.25 46.6C0.25 55.29 2.53 62.21 7.1 67.38C11.67 72.55 17.09 75.13 23.38 75.13C28.77 75.13 33.36 73.22 37.14 69.4C40.92 65.58 42.81 61.17 42.81 56.15C42.81 51.36 41.16 47.22 37.87 43.74C34.58 40.26 30.8 38.52 26.53 38.52C22.86 38.52 19.83 39.38 17.43 41.1C16.68 41.62 16.12 41.89 15.75 41.89C15.37 41.89 15.03 41.66 14.74 41.21C14.29 40.54 14.06 39.49 14.06 38.07C14.06 31.48 16.27 25.14 20.69 19.03C25.11 12.93 31.21 8.46 38.99 5.61L38.99 0.11C25.59 4.98 15.78 11.41 9.57 19.42Z" />
	</g>
</svg>