<svg width="20" height="20" xmlns="http://www.w3.org/2000/svg" class="svg-inline--fa fa-instagram fa-w-14">

 <g>
  <title>background</title>
  <rect fill="none" id="canvas_background" height="22" width="22" y="-1" x="-1"/>
 </g>
 <g>
  <title>Layer 1</title>
  <path id="svg_1" d="m9.91763,4.82996c-2.8137,0 -5.08324,2.26954 -5.08324,5.08324s2.26954,5.08324 5.08324,5.08324s5.08324,-2.26954 5.08324,-5.08324s-2.26954,-5.08324 -5.08324,-5.08324zm0,8.38801c-1.81829,0 -3.30477,-1.48206 -3.30477,-3.30477s1.48206,-3.30477 3.30477,-3.30477s3.30477,1.48206 3.30477,3.30477s-1.48648,3.30477 -3.30477,3.30477zm6.47682,-8.59594c0,0.65918 -0.53089,1.18565 -1.18565,1.18565c-0.65918,0 -1.18565,-0.53089 -1.18565,-1.18565s0.53089,-1.18565 1.18565,-1.18565s1.18565,0.53089 1.18565,1.18565zm3.36671,1.20334c-0.07521,-1.58824 -0.43798,-2.99509 -1.60151,-4.15419c-1.1591,-1.1591 -2.56595,-1.52188 -4.15419,-1.60151c-1.6369,-0.09291 -6.54318,-0.09291 -8.18008,0c-1.58381,0.07521 -2.99066,0.43798 -4.15419,1.59708s-1.52188,2.56595 -1.60151,4.15419c-0.09291,1.6369 -0.09291,6.54318 0,8.18008c0.07521,1.58824 0.43798,2.99509 1.60151,4.15419s2.56595,1.52188 4.15419,1.60151c1.6369,0.09291 6.54318,0.09291 8.18008,0c1.58824,-0.07521 2.99509,-0.43798 4.15419,-1.60151c1.1591,-1.1591 1.52188,-2.56595 1.60151,-4.15419c0.09291,-1.6369 0.09291,-6.53876 0,-8.17566zm-2.1147,9.93201c-0.34508,0.86712 -1.01311,1.53515 -1.88465,1.88465c-1.3051,0.51761 -4.40194,0.39817 -5.84418,0.39817s-4.54351,0.11503 -5.84418,-0.39817c-0.86712,-0.34508 -1.53515,-1.01311 -1.88465,-1.88465c-0.51761,-1.3051 -0.39817,-4.40194 -0.39817,-5.84418s-0.11503,-4.54351 0.39817,-5.84418c0.34508,-0.86712 1.01311,-1.53515 1.88465,-1.88465c1.3051,-0.51761 4.40194,-0.39817 5.84418,-0.39817s4.54351,-0.11503 5.84418,0.39817c0.86712,0.34508 1.53515,1.01311 1.88465,1.88465c0.51761,1.3051 0.39817,4.40194 0.39817,5.84418s0.11945,4.54351 -0.39817,5.84418z" fill="#ffffff"/>
  <ellipse ry="8.5" rx="1" id="svg_2" cy="83.5" cx="138.5" stroke-width="null" fill="#ffffff"/>
  <ellipse ry="0.5" rx="0.5" id="svg_3" cy="103.5" cx="116" stroke-width="null" fill="#ffffff"/>
 </g>
</svg>