<svg width="20" height="13" xmlns="http://www.w3.org/2000/svg" class="svg-inline--fa fa-vk fa-w-18 fa-2x">
 <g>
  <title>background</title>
  <rect x="-1" y="-1" width="22" height="15" id="canvas_background" fill="none"/>
 </g>

 <g>
  <title>Layer 1</title>
  <path stroke="null" fill="#ffffff" d="m19.39882,0.78595c0.13401,-0.45273 0,-0.78595 -0.64469,-0.78595l-2.13328,0c-0.54328,0 -0.79319,0.28613 -0.9272,0.60485c0,0 -1.08656,2.64758 -2.62223,4.36435c-0.4962,0.4962 -0.72437,0.65556 -0.99601,0.65556c-0.13401,0 -0.34046,-0.15936 -0.34046,-0.6121l0,-4.22672c0,-0.54328 -0.15212,-0.78595 -0.60123,-0.78595l-3.35385,0c-0.34046,0 -0.54328,0.25353 -0.54328,0.48895c0,0.51431 0.76784,0.63383 0.84752,2.08257l0,3.14378c0,0.68815 -0.12314,0.81492 -0.39478,0.81492c-0.72437,0 -2.4846,-2.65845 -3.5277,-5.70082c-0.21007,-0.59036 -0.41651,-0.82941 -0.96342,-0.82941l-2.13328,0c-0.60847,0 -0.73162,0.28613 -0.73162,0.60485c0,0.56501 0.72437,3.37196 3.37196,7.08075c1.76385,2.53168 4.24845,3.90437 6.50849,3.90437c1.3582,0 1.52481,-0.30424 1.52481,-0.82941c0,-2.41941 -0.12314,-2.64758 0.55777,-2.64758c0.3151,0 0.85838,0.15936 2.12604,1.37993c1.44875,1.44875 1.68779,2.09706 2.49909,2.09706l2.13328,0c0.60847,0 0.91633,-0.30424 0.73886,-0.90547c-0.40565,-1.26403 -3.1474,-3.86453 -3.27055,-4.03838c-0.3151,-0.40565 -0.22456,-0.58674 0,-0.94893c0.00362,-0.00362 2.60774,-3.66895 2.87576,-4.91125z" id="svg_1"/>
  <g id="svg_11">
   <g transform="matrix(0.0020377364780357343,0,0,0.0020377364780357343,0,0) " id="svg_9">
    <title transform="translate(4507.40576171875,0) translate(0,2889.813720703125) ">background</title>
    <rect x="4506.40576" y="2888.81372" width="802" height="602" id="svg_7" fill="none"/>
   </g>
   <g transform="matrix(0.0020377364780357343,0,0,0.0020377364780357343,0,0) " id="svg_10">
    <title transform="translate(4507.40576171875,0) translate(0,2889.813720703125) ">Layer 1</title>
    <path fill="#ffffff" d="m5052.40576,3007.51372c3.7,-12.5 0,-21.7 -17.8,-21.7l-58.9,0c-15,0 -21.9,7.9 -25.6,16.7c0,0 -30,73.1 -72.4,120.5c-13.7,13.7 -20,18.1 -27.5,18.1c-3.7,0 -9.4,-4.4 -9.4,-16.9l0,-116.7c0,-15 -4.2,-21.7 -16.6,-21.7l-92.6,0c-9.4,0 -15,7 -15,13.5c0,14.2 21.2,17.5 23.4,57.5l0,86.8c0,19 -3.4,22.5 -10.9,22.5c-20,0 -68.6,-73.4 -97.4,-157.4c-5.8,-16.3 -11.5,-22.9 -26.6,-22.9l-58.9,0c-16.8,0 -20.2,7.9 -20.2,16.7c0,15.6 20,93.1 93.1,195.5c48.7,69.9 117.3,107.8 179.7,107.8c37.5,0 42.1,-8.4 42.1,-22.9c0,-66.8 -3.4,-73.1 15.4,-73.1c8.7,0 23.7,4.4 58.7,38.1c40,40 46.6,57.9 69,57.9l58.9,0c16.8,0 25.3,-8.4 20.4,-25c-11.2,-34.9 -86.9,-106.7 -90.3,-111.5c-8.7,-11.2 -6.2,-16.2 0,-26.2c0.1,-0.1 72,-101.3 79.4,-135.6z" id="svg_6"/>
   </g>
  </g>
 </g>
</svg>