<svg width="20" height="20" xmlns="http://www.w3.org/2000/svg" class="svg-inline--fa fa-github fa-w-16 fa-2x">

 <g>
  <title>background</title>
  <rect fill="none" id="canvas_background" height="22" width="22" y="-1" x="-1"/>
 </g>
 <g>
  <title>Layer 1</title>
  <path stroke="null" id="svg_1" d="m6.68953,15.70166c0,0.08065 -0.09274,0.14516 -0.20968,0.14516c-0.13306,0.0121 -0.22581,-0.05242 -0.22581,-0.14516c0,-0.08065 0.09274,-0.14516 0.20968,-0.14516c0.12097,-0.0121 0.22581,0.05242 0.22581,0.14516zm-1.25404,-0.18145c-0.02823,0.08065 0.05242,0.17339 0.17339,0.19758c0.10484,0.04032 0.22581,0 0.25,-0.08065s-0.05242,-0.17339 -0.17339,-0.20968c-0.10484,-0.02823 -0.22177,0.0121 -0.25,0.09274zm1.78226,-0.06855c-0.11694,0.02823 -0.19758,0.10484 -0.18548,0.19758c0.0121,0.08065 0.11694,0.13306 0.2379,0.10484c0.11694,-0.02823 0.19758,-0.10484 0.18548,-0.18548c-0.0121,-0.07661 -0.12097,-0.12903 -0.2379,-0.11694zm2.65323,-15.45165c-5.59276,0 -9.87099,4.24598 -9.87099,9.83874c0,4.47179 2.81452,8.29841 6.8347,9.64519c0.51613,0.09274 0.69758,-0.22581 0.69758,-0.4879c0,-0.25 -0.0121,-1.62904 -0.0121,-2.47581c0,0 -2.82259,0.60484 -3.41533,-1.20162c0,0 -0.45968,-1.17339 -1.12097,-1.47581c0,0 -0.92339,-0.63307 0.06452,-0.62097c0,0 1.00403,0.08065 1.55646,1.04033c0.88307,1.55646 2.36291,1.10887 2.93952,0.84274c0.09274,-0.64516 0.35484,-1.09274 0.64516,-1.35887c-2.25404,-0.25 -4.52824,-0.57661 -4.52824,-4.45566c0,-1.10887 0.30645,-1.66533 0.95162,-2.37501c-0.10484,-0.2621 -0.44758,-1.34275 0.10484,-2.73791c0.84274,-0.2621 2.78227,1.08871 2.78227,1.08871c0.80645,-0.22581 1.67339,-0.34274 2.53226,-0.34274s1.72581,0.11694 2.53226,0.34274c0,0 1.93952,-1.35484 2.78227,-1.08871c0.55242,1.3992 0.20968,2.47581 0.10484,2.73791c0.64516,0.71371 1.04033,1.27016 1.04033,2.37501c0,3.89114 -2.37501,4.20162 -4.62904,4.45566c0.37097,0.31855 0.68549,0.92339 0.68549,1.87097c0,1.35887 -0.0121,3.04033 -0.0121,3.37098c0,0.2621 0.18548,0.58065 0.69758,0.4879c4.03227,-1.33871 6.76615,-5.16534 6.76615,-9.63712c0,-5.59276 -4.5363,-9.83874 -10.12906,-9.83874zm-5.95163,13.9073c-0.05242,0.04032 -0.04032,0.13306 0.02823,0.20968c0.06452,0.06452 0.15726,0.09274 0.20968,0.04032c0.05242,-0.04032 0.04032,-0.13306 -0.02823,-0.20968c-0.06452,-0.06452 -0.15726,-0.09274 -0.20968,-0.04032zm-0.43549,-0.32661c-0.02823,0.05242 0.0121,0.11694 0.09274,0.15726c0.06452,0.04032 0.14516,0.02823 0.17339,-0.02823c0.02823,-0.05242 -0.0121,-0.11694 -0.09274,-0.15726c-0.08065,-0.02419 -0.14516,-0.0121 -0.17339,0.02823zm1.30646,1.43549c-0.06452,0.05242 -0.04032,0.17339 0.05242,0.25c0.09274,0.09274 0.20968,0.10484 0.2621,0.04032c0.05242,-0.05242 0.02823,-0.17339 -0.05242,-0.25c-0.08871,-0.09274 -0.20968,-0.10484 -0.2621,-0.04032zm-0.45968,-0.59274c-0.06452,0.04032 -0.06452,0.14516 0,0.2379c0.06452,0.09274 0.17339,0.13306 0.22581,0.09274c0.06452,-0.05242 0.06452,-0.15726 0,-0.25c-0.05645,-0.09274 -0.16129,-0.13306 -0.22581,-0.08065z" fill="currentColor"/>
 </g>
</svg>